<svg width="18" height="22" viewBox="0 0 18 22" fill="none" xmlns="http://www.w3.org/2000/svg">
<path d="M3 22H15C15.7956 22 16.5587 21.6839 17.1213 21.1213C17.6839 20.5587 18 19.7956 18 19V3C18 2.20435 17.6839 1.44129 17.1213 0.87868C16.5587 0.31607 15.7956 0 15 0H3C2.20435 0 1.44129 0.31607 0.87868 0.87868C0.316071 1.44129 0 2.20435 0 3V19C0 19.7956 0.316071 20.5587 0.87868 21.1213C1.44129 21.6839 2.20435 22 3 22ZM16 8.5V13.5H15.868L14.9 11.553C14.7814 11.3156 14.5735 11.1351 14.3218 11.0511C14.0701 10.967 13.7954 10.9864 13.558 11.105C13.3206 11.2236 13.1401 11.4315 13.0561 11.6832C12.972 11.9349 12.9914 12.2096 13.11 12.447L13.637 13.5H12V11C12 10.7348 11.8946 10.4804 11.7071 10.2929C11.5196 10.1054 11.2652 10 11 10C10.7348 10 10.4804 10.1054 10.2929 10.2929C10.1054 10.4804 10 10.7348 10 11V13.5H9V12C9 11.7348 8.89464 11.4804 8.70711 11.2929C8.51957 11.1054 8.26522 11 8 11C7.73478 11 7.48043 11.1054 7.29289 11.2929C7.10536 11.4804 7 11.7348 7 12V13.5H2V8.5H16ZM15 20H11V18C11 17.7348 10.8946 17.4804 10.7071 17.2929C10.5196 17.1054 10.2652 17 10 17C9.73478 17 9.48043 17.1054 9.29289 17.2929C9.10536 17.4804 9 17.7348 9 18V20H8V18C8 17.7348 7.89464 17.4804 7.70711 17.2929C7.51957 17.1054 7.26522 17 7 17C6.73478 17 6.48043 17.1054 6.29289 17.2929C6.10536 17.4804 6 17.7348 6 18V20H5V19C5 18.7348 4.89464 18.4804 4.70711 18.2929C4.51957 18.1054 4.26522 18 4 18C3.73478 18 3.48043 18.1054 3.29289 18.2929C3.10536 18.4804 3 18.7348 3 19V20C2.73478 20 2.48043 19.8946 2.29289 19.7071C2.10536 19.5196 2 19.2652 2 19V15.5H16V19C16 19.2652 15.8946 19.5196 15.7071 19.7071C15.5196 19.8946 15.2652 20 15 20ZM3 2H15C15.2652 2 15.5196 2.10536 15.7071 2.29289C15.8946 2.48043 16 2.73478 16 3V6.5H11.868L10.9 4.553C10.7814 4.31563 10.5735 4.13508 10.3218 4.05106C10.0701 3.96705 9.79537 3.98645 9.558 4.105C9.32063 4.22355 9.14008 4.43154 9.05606 4.68322C8.97205 4.93489 8.99145 5.20963 9.11 5.447L9.632 6.5H8V4C8 3.73478 7.89464 3.48043 7.70711 3.29289C7.51957 3.10536 7.26522 3 7 3C6.73478 3 6.48043 3.10536 6.29289 3.29289C6.10536 3.48043 6 3.73478 6 4V6.5H5V5C5 4.73478 4.89464 4.48043 4.70711 4.29289C4.51957 4.10536 4.26522 4 4 4C3.73478 4 3.48043 4.10536 3.29289 4.29289C3.10536 4.48043 3 4.73478 3 5V6.5H2V3C2 2.73478 2.10536 2.48043 2.29289 2.29289C2.48043 2.10536 2.73478 2 3 2Z" fill="#7A7D81"/>
</svg>
