<svg width="18" height="20" viewBox="0 0 18 20" fill="none" xmlns="http://www.w3.org/2000/svg">
<path d="M9.56 0.170989C9.39463 0.0592126 9.1996 -0.000518799 9 -0.000518799C8.8004 -0.000518799 8.60537 0.0592126 8.44 0.170989L0.44 5.57099C0.304431 5.66262 0.193419 5.78613 0.116705 5.93066C0.0399906 6.0752 -8.28837e-05 6.23635 1.28708e-07 6.39999V19C1.28708e-07 19.2652 0.105357 19.5196 0.292893 19.7071C0.48043 19.8946 0.734784 20 1 20H17C17.2652 20 17.5196 19.8946 17.7071 19.7071C17.8946 19.5196 18 19.2652 18 19V6.39999C18.0001 6.23635 17.96 6.0752 17.8833 5.93066C17.8066 5.78613 17.6956 5.66262 17.56 5.57099L9.56 0.170989ZM11 18H7V12H11V18ZM16 18H13V11C13 10.7348 12.8946 10.4804 12.7071 10.2929C12.5196 10.1053 12.2652 9.99999 12 9.99999H6C5.73478 9.99999 5.48043 10.1053 5.29289 10.2929C5.10536 10.4804 5 10.7348 5 11V18H2V6.93199L9 2.20699L16 6.93199V18Z" fill="#7A7D81"/>
</svg>
